<?xml version="1.0" encoding="utf-8"?>
<!-- Generator: Adobe Illustrator 23.0.3, SVG Export Plug-In . SVG Version: 6.00 Build 0)  -->
<svg version="1.1" xmlns="http://www.w3.org/2000/svg" xmlns:xlink="http://www.w3.org/1999/xlink" x="0px" y="0px"
	 viewBox="0 0 262 433" style="enable-background:new 0 0 262 433;" xml:space="preserve">
<style type="text/css">
	.st0{display:none;}
	.st1{display:inline;}
	.st2{fill:#FFFFFF;stroke:#000000;stroke-width:10;stroke-miterlimit:10;}
</style>
<g id="Layer_1" class="st0">
	<g transform="translate(0.000000,972.000000) scale(0.100000,-0.100000)" class="st1">
		<path d="M1818,9350c-61-11-70-25-66-99l3-66l-50,3c-72,5-90-12-90-82c0-73,24-100,92-102c27-1,49-2,50-3c2,0-6-24-17-51
			c-11-28-20-61-20-73c0-14-12-32-30-45c-31-24-38-50-18-70c18-18,2-27-97-50c-162-39-225-84-225-161c0-93,70-307,162-491
			c44-89,63-139,57-146c-5-6-29-19-54-28c-40-16-45-21-60-71c-13-45-21-56-52-72c-20-10-40-28-45-41c-11-32,28-70,81-78
			c34-5,42-11,47-33c9-35,38-65,84-86c21-10,41-24,45-32c26-70,10-596-25-776c-44-228-129-419-256-575c-24-29-46-67-49-85
			c-9-43-21-57-85-99c-143-93-239-259-211-365c6-22,18-46,26-53c24-20,18-34-30-68c-39-27-45-37-45-66c0-63,32-77,220-98
			c157-17,1072-17,1320,1c211,14,331,33,366,56c18,11,24,24,24,51c0,35-6,44-69,92l-23,18l21,34c25,42,28,109,6,170
			c-30,85-129,200-205,240c-41,21-80,62-80,85c0,22-15,44-93,144c-129,164-229,434-257,696c-13,125-25,553-16,588c4,18,17,29,41,37
			c39,13,85,62,85,91c0,21,6,24,63,34c77,13,86,89,13,119c-29,12-37,23-49,63c-12,43-18,51-65,73c-28,14-54,29-58,32
			c-3,4,17,53,44,110c98,199,149,358,159,490l6,78l-37,35c-36,34-160,82-258,100c-43,8-42,6-26,40c10,23,8,29-20,58
			c-18,18-32,40-32,49s-9,38-20,64s-19,52-17,58s23,11,47,12c34,0,48,6,66,28c31,35,32,93,3,130c-19,25-27,27-73,24l-51-3l3,58
			c4,68-11,92-62,102c-17,4-38,8-46,9C1862,9356,1838,9354,1818,9350z"/>
		<path d="M3842,8780c-65-40-77-123-27-190c13-18,22-37,19-42s-33-22-66-39c-82-41-143-100-177-171l-28-59l-17,25c-9,15-25,26-36,26
			s-20,5-20,11c0,13-69,3-84-12c-6-5-2-33,12-71c12-35,36-119,53-187c34-134,74-242,138-370c23-44,41-85,41-91c0-5-22-21-50-35
			c-37-19-50-31-50-48c0-35-23-71-50-77c-15-4-29-17-34-33c-13-35,12-62,64-71c33-5,39-11,45-36c7-30,41-62,82-74c12-4,25-17,29-29
			c11-33,7-365-6-510c-22-255-108-495-234-651c-31-38-56-78-56-88c0-32-18-55-62-81c-61-35-144-127-173-189c-32-68-34-144-5-181
			c11-14,20-27,20-30c0-2-18-16-41-31c-36-25-40-30-37-64c4-53,42-68,203-84c172-16,976-16,1184,1c244,19,291,34,291,93
			c0,15-8,35-17,43c-10,7-29,22-41,32l-24,19l22,37c56,95-28,257-185,360c-37,24-52,41-59,67c-5,19-27,56-48,82
			c-149,182-235,421-258,724c-12,152-16,420-6,451c3,10,26,29,51,41c34,16,46,29,53,54c7,28,15,35,55,46c54,15,74,41,57,73
			c-7,11-25,25-41,31c-23,8-31,19-40,55c-10,39-18,47-60,69c-27,13-49,27-49,31s20,47,44,97c67,139,94,214,136,379
			c21,84,46,173,54,199c14,45,14,47-5,53c-11,4-26,2-33-4c-9-8-18-7-32,4c-29,22-48,18-68-16l-18-31l-30,53c-40,74-89,122-169,164
			c-38,20-71,39-73,44c-3,4,6,23,19,41c34,46,39,80,19,128C3994,8793,3910,8822,3842,8780z"/>
		<path d="M5653,8654c-32-16-63-66-63-102c0-10,13-36,30-56l29-38l-20-51c-22-58-57-114-164-263c-118-163-139-206-139-283
			c-1-56,4-75,32-126c18-33,52-87,77-120s45-65,45-71s-11-16-25-22c-34-15-32-47,3-64c20-10,27-20,27-43c0-25-7-33-44-51
			c-37-17-47-28-55-59c-8-26-21-44-41-55c-34-19-45-60-20-80c8-7,30-16,48-19c21-5,33-14,35-26c6-28,31-54,68-70c31-13,32-15,39-97
			c7-88-8-398-25-503c-28-172-109-369-198-480c-26-33-53-76-58-95c-7-26-23-44-58-67c-73-47-114-91-146-157c-33-66-40-139-15-172
			c21-28,18-37-20-62c-26-17-35-29-35-51c0-64,53-76,400-92c250-12,720-6,923,12c128,11,184,25,200,50s0,66-33,86
			c-34,20-37,33-14,69c25,37,12,114-28,181c-38,63-68,93-134,137c-35,22-52,42-61,68c-7,20-34,64-61,97c-56,70-120,194-155,301
			c-43,132-58,248-64,507l-6,242l47,28c31,19,49,38,57,60c7,22,17,33,29,33c27,0,68,20,74,37c8,21-10,50-41,65c-18,9-30,26-37,52
			c-9,32-19,42-56,60c-38,18-45,26-45,51c0,23,7,33,28,43c34,17,36,49,2,64c-14,6-25,15-25,19s29,51,65,103c80,119,101,183,85,260
			c-12,59-37,102-177,297c-49,70-102,157-118,193l-28,67l25,27c35,37,41,64,24,106C5808,8661,5723,8689,5653,8654z"/>
		<path d="M7833,8338c-5-7-17-42-27-78c-9-36-21-72-26-80c-6-10-36-16-97-21c-101-7-113-12-247-108c-120-85-255-156-316-166
			c-72-11-164-67-189-114c-17-31-27-166-13-175c6-4,39,0,74,8s64,13,66,11c2-1-30-20-70-42c-77-42-93-66-63-97c13-13,37-16,116-16
			c110,0,175,18,230,64c30,25,34,26,170,26c120,0,145,3,183,21c24,11,52,29,62,40c28,31,34,23,34-45c0-54-6-75-35-131
			c-48-93-106-172-225-305c-185-208-247-293-305-425c-58-131-80-273-54-341c5-16,37-54,70-85c32-32,59-66,59-76s-29-56-65-101
			s-65-89-65-97c0-33-32-76-73-96c-23-12-67-48-98-79c-101-104-143-232-100-305c11-20,21-40,21-44c0-5-17-20-39-34
			c-61-41-60-106,2-132c148-62,1424-72,1687-14c58,13,80,34,80,76c0,27-7,38-40,61c-44,30-48,46-22,75c27,31,22,129-10,192
			c-41,79-97,142-173,193c-58,40-71,54-81,89c-7,23-40,77-73,120c-34,44-61,86-61,96c0,26,54,81,131,134l71,48l-6,47
			c-5,32,0,73,15,133c19,76,20,94,10,155c-19,119-15,171,24,271c33,85,35,99,35,206c0,101,4,125,31,209l32,94l-41,104
			c-23,58-51,151-62,207c-12,57-23,106-26,110c-2,4-53,41-112,83c-77,54-113,86-125,111c-15,32-20,35-61,35c-76,0-89,10-140,109
			c-26,50-48,91-50,91S7838,8344,7833,8338z"/>
		<path d="M9583,7973c-13-2-23-9-23-14s-17-9-38-9c-51,0-62-14-62-81v-56l-50-31l-50-31v90c0,118-6,129-74,129c-53,0-112-14-131-32
			c-5-5-12-72-15-149l-5-140l-32-25c-18-14-33-32-33-40c0-9,24-41,54-72c29-31,56-70,60-85c4-16,22-51,41-79c19-27,40-69,46-91
			c17-61,6-307-31-687c-51-533-88-663-212-743c-108-69-178-176-178-270c0-36,5-59,15-67c23-19,18-37-19-59c-38-24-49-51-36-87
			c19-50,169-65,736-71c452-5,710,4,797,28c67,18,74,79,14,120c-17,12-34,24-36,25c-2,2,6,18,18,37c11,19,21,48,21,65
			c0,87-89,219-188,280c-80,49-134,178-161,387c-21,159-61,727-61,867c0,164,7,196,55,264c19,27,40,65,47,84c6,19,29,53,51,75
			c73,73,80,101,33,123c-30,13-36,46-36,191c0,64-5,123-10,131c-16,25-184,14-202-14c-4-6-8-48-8-93s-4-85-10-88c-5-3-10-2-10,3
			c0,4-18,18-40,31l-40,22v78v79l-31,6C9715,7980,9619,7980,9583,7973z"/>
		<path d="M11166,7244c-129-41-216-143-216-254c0-87,18-129,83-193c35-34,57-65,55-75c-2-9-24-24-53-34c-106-38-125-50-125-74
			c0-17,16-34,60-64c69-47,114-104,132-164s15-250-5-316c-22-75-65-137-128-185c-28-21-58-54-65-71c-10-25-24-36-60-48
			c-92-31-160-108-184-206c-11-45-10-53,9-84l21-34l-35-21c-28-16-35-26-35-51c0-26,6-33,33-45c118-49,1059-58,1172-11
			c27,12,35,21,35,40c0,25-3,29-49,65l-25,18l22,28c26,33,27,45,7,112c-25,85-101,163-178,184c-29,8-42,18-52,42c-7,18-42,56-76,86
			c-45,40-70,72-93,120c-30,64-31,71-31,201c0,167,14,215,83,282c26,25,66,58,90,72c71,44,53,77-64,116c-34,12-68,28-75,37
			c-11,13-9,19,16,40c97,80,124,124,132,213c9,99-57,204-161,255C11338,7258,11235,7266,11166,7244z"/>
		<path d="M10933,4931c-56-14-65-28-61-95l3-61h-54c-44-1-57-5-72-24c-26-31-25-91,2-125c17-22,28-26,70-26c55,0,58-6,34-63
			c-8-20-15-47-15-60s-13-36-30-52c-30-29-39-59-20-70c23-14,6-24-77-44c-49-12-117-35-151-52c-85-41-99-72-83-174
			c18-106,74-265,146-411c36-73,65-136,65-141s-23-20-52-34c-47-22-53-29-67-74c-13-41-22-53-53-67c-20-10-39-27-43-38
			c-10-30,19-67,57-75c60-12,68-16,68-35c0-28,46-77,85-90c24-8,37-20,43-38c10-39,6-479-7-599c-30-282-122-530-262-705
			c-33-40-62-84-65-98c-11-52-24-70-65-91c-96-49-193-167-224-273c-19-67-14-111,17-151l22-28l-25-19c-60-46-69-57-69-86
			c0-66,22-81,145-106c317-62,1321-78,1630-25c127,21,155,39,155,98c0,39-20,66-67,90c-28,14-29,26-3,58c15,19,20,41,20,83
			c0,109-97,253-224,335c-61,39-86,68-86,101c0,12-21,46-46,76c-177,207-275,476-305,834c-13,163-17,467-7,506c6,18,19,30,43,38
			c39,13,85,62,85,91c0,12,9,20,25,24c14,3,36,7,50,10s32,16,40,29c22,33,3,73-39,84c-27,7-34,16-49,64c-18,54-21,57-73,78
			c-30,12-54,27-54,33s20,49,44,96c91,179,166,409,166,511c0,86-61,130-237,171c-88,20-106,30-83,44c19,12,10,43-20,68
			c-16,14-30,35-30,46s-9,43-20,71s-20,53-20,55c0,3,22,5,48,5c67,0,84,15,89,81c6,77-8,93-83,94h-59l3,62c3,55,1,63-20,77
			C11039,4933,10974,4941,10933,4931z"/>
		<path d="M8945,4393c-87-23-121-121-70-198c31-44,26-54-49-91c-68-34-131-97-166-164l-27-54l-16,31c-16,30-18,30-78,27
			c-34-2-65-6-68-9s8-44,23-90c15-47,38-129,51-183c27-113,66-214,130-342c25-49,45-93,45-98c0-4-21-17-48-28c-43-18-49-25-62-69
			c-12-38-21-51-39-55c-32-7-46-31-37-63c5-20,16-29,53-39c34-10,49-20,51-33c6-28,31-54,72-74c32-15,36-21,44-76
			c14-90-9-506-34-628c-40-193-112-356-210-479c-28-34-55-79-60-100c-9-30-22-45-63-71c-152-97-235-270-176-366c11-18,19-34,17-35
			s-20-14-40-29c-31-23-38-34-38-61c0-19,8-40,18-49c108-98,1409-119,1620-27c39,18,42,21,42,59c0,40-7,48-79,98c-2,2,4,12,15,24
			c28,32,26,129-5,192c-30,61-111,151-167,183c-49,29-74,58-74,89c0,11-27,53-59,93c-139,173-218,402-241,696c-12,149-13,446-2,462
			c4,6,26,21,49,32c30,16,44,31,52,55c10,29,18,36,53,43c51,11,72,39,55,74c-7,13-23,27-37,30c-19,4-29,17-41,55c-14,44-20,51-62,68
			c-26,11-47,24-47,28c0,5,16,40,35,78c64,128,106,242,145,395c22,83,45,170,52,193c6,23,10,45,7,47c-11,11-77,17-83,7
			c-3-5-15-7-25-4c-13,3-25-3-36-21l-18-26l-23,49c-30,65-93,128-171,169c-34,18-65,37-68,42s6,25,20,46c55,80,14,180-80,197
			C8978,4396,8956,4396,8945,4393z"/>
		<path d="M7134,4256c-67-30-85-109-38-166l27-31l-28-64c-15-36-71-126-125-201c-143-200-161-233-167-303c-5-52-2-67,24-123
			c17-35,54-94,82-133l51-70l-30-25c-35-29-33-55,6-64c19-5,24-13,24-39c0-30-5-36-42-53c-36-16-45-26-57-62c-10-33-21-46-42-54
			c-30-10-43-35-34-60c7-17,47-38,71-38c8,0,22-16,30-35c9-23,27-41,53-54c21-11,41-27,45-36c18-48-2-479-29-610
			c-35-166-100-316-189-432c-31-40-56-81-56-91c0-24-17-44-61-70c-128-77-217-262-160-333l19-24l-39-36c-43-40-49-69-20-98
			c40-40,163-57,519-72c355-15,787,5,924,42c78,21,92,78,31,126c-35,29-36,30-20,54c25,34,21,105-8,166c-27,59-104,147-148,169
			c-41,22-67,51-67,75c0,12-22,49-49,83c-130,163-199,359-221,631c-12,147-13,415-2,431c4,6,24,19,44,28c26,13,40,28,48,52
			c9,26,17,34,35,34c13,0,36,10,51,23c23,20,25,26,15,45c-6,11-23,27-38,34c-18,9-30,26-37,52c-9,32-19,42-56,60c-35,16-46,27-48,48
			c-3,21,3,30,27,43c38,19,41,52,6,65c-14,5-25,14-25,20c0,5,21,38,46,72c75,102,107,174,107,239c-1,77-22,118-148,294
			c-59,83-123,183-142,223l-34,73l32,36c26,30,30,42,25,71c-6,42-30,70-73,88C7203,4273,7174,4273,7134,4256z"/>
		<path d="M5051,3878c-64-119-63-118-132-118c-58,0-60-1-76-34c-11-24-47-56-119-106c-57-40-108-78-114-85c-6-8-20-57-31-111
			c-11-53-38-142-59-196c-22-55-40-106-40-113s14-55,31-107c29-87,30-99,25-194c-6-99-6-103,30-195c40-103,43-137,24-274
			c-10-71-9-90,8-160c12-49,18-100,15-130l-5-50l46-28c63-39,142-112,149-137c6-22-17-60-89-148c-24-29-44-62-44-72
			c0-36-13-52-81-96c-158-104-249-301-182-392l22-30l-44-37c-35-28-45-43-45-66c0-49,17-67,73-83c225-64,1114-76,1524-21
			c177,24,213,42,213,106c0,29-6,43-30,62c-16,14-35,27-42,29c-10,4-7,16,11,48c19,35,23,52,18,96c-11,103-94,221-212,300
			c-47,32-60,47-70,80c-6,22-40,75-73,118c-34,42-62,84-62,93s24,40,54,68c82,80,91,97,90,179c-1,52-10,97-33,166
			c-61,181-126,280-341,520c-104,115-193,241-230,322c-20,44-29,168-12,168c5,0,19-12,33-26c44-48,81-57,229-55l134,1l43-30
			c76-55,186-79,288-63c38,6,52,14,62,33c15,31,10,37-77,86c-57,31-61,35-30,29c19-3,52-8,74-12l39-6l-5,87c-4,78-7,89-33,116
			c-36,38-139,90-176,90c-39,0-188,79-294,156c-132,95-157,107-250,112c-44,2-85,8-91,13c-7,5-22,45-35,89c-12,44-26,80-31,80
			C5094,3950,5073,3917,5051,3878z"/>
		<path d="M3214,3573c-36-5-44-21-44-98c0-47-3-52-38-75c-20-14-40-26-44-28c-5-2-8,33-8,78c0,117-2,120-108,120c-55,0-92-4-100-12
			c-7-7-12-41-13-77c0-37-4-101-8-145c-6-69-10-80-34-98c-15-11-27-27-27-36c0-10,25-43,55-76c30-32,55-66,55-76s18-44,39-76
			c58-87,65-124,57-302c-8-188-61-755-82-876c-19-114-53-220-87-273c-14-23-51-58-82-78c-94-63-164-161-180-253c-5-34-2-51,15-84
			s19-43,9-47c-32-10-70-61-67-87c5-43,43-62,158-81c88-15,178-17,565-18c462,0,602,8,759,40c81,17,106,36,106,81c0,25-8,39-35,61
			l-36,28l21,40c16,30,19,50,14,80c-15,90-88,192-181,252c-83,53-124,141-157,333c-21,126-65,642-73,855c-7,198,1,250,53,322
			c19,26,39,63,45,81c6,19,33,57,60,85c54,57,62,89,27,108c-13,6-25,14-28,16c-3,3-7,67-10,143c-4,93-10,143-19,154
			c-10,12-32,16-97,16c-46,0-86-5-89-10c-4-6-9-53-12-105l-6-94l-28,24c-16,13-38,26-49,30c-17,6-20,15-20,75c0,38-3,71-7,73
			C3471,3570,3249,3578,3214,3573z"/>
		<path d="M1610,2867c-83-23-165-90-205-167c-21-40-23-113-5-175c10-39,27-63,74-108c68-66,68-82,0-106c-105-38-124-49-124-75
			c0-20,13-34,58-65c31-21,67-49,79-63c39-41,64-113,70-201c12-178-36-314-140-398c-32-26-66-62-75-80c-12-24-29-37-59-46
			c-124-41-231-234-168-303c20-22,20-22,0-36c-48-35-56-46-53-72c5-43,53-59,213-73c161-13,665-7,815,11c162,19,210,39,210,86
			c0,20-34,57-62,66c-7,3-3,16,12,35c19,26,22,39,16,74c-16,98-96,194-188,225c-40,13-50,21-55,45c-3,15-16,36-30,44
			c-131,86-181,205-170,403c3,53,11,114,18,135c16,49,75,116,138,156c86,56,80,79-36,123c-47,18-88,39-91,47c-3,9,7,24,29,40
			c85,65,119,130,119,228C2000,2785,1792,2919,1610,2867z"/>
	</g>
</g>
<g id="King">
	<path class="st2" d="M123.6,119.1c-12.9,4.1-21.6,14.3-21.6,25.4c0,8.7,1.8,12.9,8.3,19.3c3.5,3.4,5.7,6.5,5.5,7.5
		c-0.2,0.9-2.4,2.4-5.3,3.4c-10.6,3.8-12.5,5-12.5,7.4c0,1.7,1.6,3.4,6,6.4c6.9,4.7,11.4,10.4,13.2,16.4c1.8,6,1.5,25-0.5,31.6
		c-2.2,7.5-6.5,13.7-12.8,18.5c-2.8,2.1-5.8,5.4-6.5,7.1c-1,2.5-2.4,3.6-6,4.8c-9.2,3.1-16,10.8-18.4,20.6c-1.1,4.5-1,5.3,0.9,8.4
		l2.1,3.4l-3.5,2.1c-2.8,1.6-3.5,2.6-3.5,5.1c0,2.6,0.6,3.3,3.3,4.5c11.8,4.9,105.9,5.8,117.2,1.1c2.7-1.2,3.5-2.1,3.5-4
		c0-2.5-0.3-2.9-4.9-6.5l-2.5-1.8l2.2-2.8c2.6-3.3,2.7-4.5,0.7-11.2c-2.5-8.5-10.1-16.3-17.8-18.4c-2.9-0.8-4.2-1.8-5.2-4.2
		c-0.7-1.8-4.2-5.6-7.6-8.6c-4.5-4-7-7.2-9.3-12c-3-6.4-3.1-7.1-3.1-20.1c0-16.7,1.4-21.5,8.3-28.2c2.6-2.5,6.6-5.8,9-7.2
		c7.1-4.4,5.3-7.7-6.4-11.6c-3.4-1.2-6.8-2.8-7.5-3.7c-1.1-1.3-0.9-1.9,1.6-4c9.7-8,12.4-12.4,13.2-21.3c0.9-9.9-5.7-20.4-16.1-25.5
		C140.8,117.7,130.5,116.9,123.6,119.1z"/>
</g>
</svg>
